Coordinates
version=1
nRows=17
nColumns=40
inDegrees=yes

Units are S.I. units (second, meters, Newtons, ...)
Angles are in degrees.

endheader
time	pelvis_tilt	pelvis_list	pelvis_rotation	pelvis_tx	pelvis_ty	pelvis_tz	hip_flexion_r	hip_adduction_r	hip_rotation_r	knee_angle_r	knee_angle_r_beta	ankle_angle_r	subtalar_angle_r	mtp_angle_r	hip_flexion_l	hip_adduction_l	hip_rotation_l	knee_angle_l	knee_angle_l_beta	ankle_angle_l	subtalar_angle_l	mtp_angle_l	lumbar_extension	lumbar_bending	lumbar_rotation	arm_flex_r	arm_add_r	arm_rot_r	elbow_flex_r	pro_sup_r	wrist_flex_r	wrist_dev_r	arm_flex_l	arm_add_l	arm_rot_l	elbow_flex_l	pro_sup_l	wrist_flex_l	wrist_dev_l
      1.04000000	      1.78836592	     -3.39991606	      3.36516129	     -0.58228980	      0.89861917	      1.45319595	     -5.69761451	      5.67314740	    -21.01375034	    -17.36492505	     -0.30307512	     11.54522111	      9.63183969	     -6.55179080	     22.38138479	      4.09556428	      8.19188942	    -19.37047755	     -0.33807861	     -3.61681826	     -5.93564888	    -11.36589396	    -10.71775386	      4.85881151	      5.70253738	     16.81651849	    -13.28375756	     16.48547662	     21.55928626	     89.95437384	      0.00000000	      0.00000000	     -1.72542460	      8.66626854	     -5.82141686	     22.45856843	     89.95437384	      0.00000000	      0.00000000
      1.05000000	      1.91657393	     -3.26471432	      3.13744870	     -0.57545802	      0.89813733	      1.45295560	     -6.20817385	      5.41803764	    -20.82911596	    -17.64523951	     -0.30796753	     11.90360463	      9.71568327	     -6.76146941	     22.14874289	      3.98177259	      9.49135720	    -17.45780784	     -0.30469623	     -3.89878242	     -6.58489149	    -11.23569404	    -10.91792286	      4.66865651	      5.80600668	     16.99339799	    -13.17133912	     16.49114107	     21.78985920	     89.95437384	      0.00000000	      0.00000000	     -1.77222760	      8.35247616	     -5.20351713	     22.29433310	     89.95437384	      0.00000000	      0.00000000
      1.06000000	      1.72704064	     -3.40826459	      3.00033488	     -0.56897858	      0.89702369	      1.45265452	     -6.31046314	      5.48992072	    -20.54920620	    -17.92920979	     -0.31292374	     11.82887517	      9.75696568	     -6.81990884	     22.45759974	      4.05427400	     10.19534062	    -15.98929056	     -0.27906577	     -3.63977129	     -6.76242781	    -11.12521975	    -10.75806779	      4.77587460	      5.84289531	     17.15185553	    -13.08341594	     16.48153883	     21.96271805	     89.95437384	      0.00000000	      0.00000000	     -1.97066802	      8.12885631	     -4.98026570	     22.43306732	     89.95437384	      0.00000000	      0.00000000
      1.07000000	      1.77545931	     -3.25271300	      2.70526525	     -0.56214445	      0.89638719	      1.45228226	     -6.67535148	      5.17221954	    -20.24419477	    -18.31056907	     -0.31957972	     12.13244404	      9.77682590	     -6.98617978	     22.30179708	      3.87735256	     11.30266682	    -14.48498672	     -0.25281071	     -3.48539520	     -6.91047551	    -10.96598888	    -10.88789414	      4.56453256	      6.00138152	     17.28180852	    -12.99023837	     16.51322560	     22.14139058	     89.95437384	      0.00000000	      0.00000000	     -2.01955340	      7.82807711	     -4.52731142	     22.31378867	     89.95437384	      0.00000000	      0.00000000
      1.08000000	      1.59764596	     -3.39274519	      2.55320060	     -0.55536345	      0.89524644	      1.45188343	     -6.78057832	      5.21072997	    -19.98597855	    -18.63738587	     -0.32528375	     12.08027399	      9.78237915	     -7.02154856	     22.53417894	      3.96192073	     11.87517216	    -13.37294578	     -0.23340193	     -2.96725792	     -6.92977930	    -10.88573682	    -10.73977226	      4.68205642	      6.04131288	     17.38266485	    -12.87957268	     16.53855308	     22.25033493	     89.95437384	      0.00000000	      0.00000000	     -2.11756748	      7.57753108	     -4.40221800	     22.26618278	     89.95437384	      0.00000000	      0.00000000
      1.09000000	      1.43310924	     -3.53794137	      2.57846203	     -0.54856251	      0.89409264	      1.45136628	     -6.94814451	      5.31098059	    -19.89254034	    -18.88458011	     -0.32959810	     12.09105303	      9.65515092	     -6.99424506	     22.94668920	      4.04693086	     12.37184723	    -12.85682707	     -0.22439396	     -2.68450618	     -6.73588842	    -10.77070232	    -10.61317989	      4.80375973	      5.83046284	     17.46034750	    -12.72691095	     16.52753678	     22.44662561	     89.95437384	      0.00000000	      0.00000000	     -2.21028987	      7.42123363	     -4.38511649	     22.19722388	     89.95437384	      0.00000000	      0.00000000
      1.10000000	      1.55637616	     -3.27091271	      1.81169929	     -0.54121643	      0.89357229	      1.45121866	     -7.28333526	      4.74762069	    -19.06913353	    -19.56463437	     -0.34146729	     12.35084440	      9.74225736	     -7.22498598	     22.33406808	      3.85987864	     13.20964269	    -11.60853572	     -0.20260717	     -2.30019513	     -6.16618144	    -10.49814454	    -10.82631831	      4.43431687	      6.35388785	     17.56158196	    -12.61576839	     16.63227699	     22.46393746	     89.95437384	      0.00000000	      0.00000000	     -2.25552435	      6.96491961	     -3.23737458	     22.02539307	     89.95437384	      0.00000000	      0.00000000
      1.11000000	      1.41138536	     -3.34711898	      1.72390304	     -0.53390031	      0.89232442	      1.45072836	     -7.44806377	      4.72806029	    -18.89723194	    -19.93244109	     -0.34788672	     12.20357228	      9.51645930	     -7.14178401	     22.65476857	      3.92295944	     13.25648535	    -11.69140807	     -0.20405357	     -2.20017163	     -5.93899543	    -10.33031698	    -10.67658800	      4.45677461	      6.23347841	     17.49409022	    -12.45938124	     16.62620615	     22.67748725	     89.95437384	      0.00000000	      0.00000000	     -2.49909570	      6.79903465	     -3.32653298	     22.05703169	     89.95437384	      0.00000000	      0.00000000
      1.12000000	      1.28059096	     -3.44686479	      1.53516883	     -0.52631377	      0.89118904	      1.45019356	     -7.64360155	      4.69119657	    -18.68079026	    -20.30517685	     -0.35439219	     12.11697090	      9.33445321	     -7.07822881	     22.80854984	      4.03276546	     13.33196424	    -11.82103765	     -0.20631603	     -2.05009144	     -5.67276396	    -10.17451707	    -10.52012196	      4.52761748	      6.23484656	     17.41462105	    -12.30582755	     16.63526038	     22.74438543	     89.95437384	      0.00000000	      0.00000000	     -2.67429790	      6.61502595	     -3.43339378	     22.04330056	     89.95437384	      0.00000000	      0.00000000
      1.13000000	      1.42252525	     -3.54391149	      0.96049250	     -0.51863405	      0.89057010	      1.44998520	     -8.09205737	      4.61083545	    -17.93279349	    -20.76855153	     -0.36247961	     12.25195467	      9.45788187	     -7.14502260	     22.56809757	      4.28869992	     13.68111136	    -12.28107460	     -0.21434519	     -1.47317035	     -4.96151472	    -10.04641221	    -10.67522289	      4.57951970	      6.58684258	     17.61056108	    -12.10096545	     16.74276607	     22.22681642	     89.95437384	      0.00000000	      0.00000000	     -2.60825123	      6.39083583	     -3.78853002	     21.58953722	     89.95437384	      0.00000000	      0.00000000
      1.14000000	      1.23408982	     -3.52153405	      0.73054448	     -0.51057715	      0.88935964	      1.44930870	     -8.19812572	      4.41606138	    -17.61676989	    -21.25535237	     -0.37097588	     11.95402775	      9.13382438	     -7.00661939	     22.66415091	      4.23605238	     13.40247782	    -12.83579046	     -0.22402681	     -1.52740557	     -4.71146974	     -9.81975090	    -10.42437045	      4.49886712	      6.57266224	     17.29957652	    -11.98776963	     16.70131692	     22.54137188	     89.95437384	      0.00000000	      0.00000000	     -2.92870213	      6.27196380	     -3.81221971	     21.80815487	     89.95437384	      0.00000000	      0.00000000
      1.15000000	      1.47266401	     -3.52392442	      0.14388722	     -0.50224902	      0.88898308	      1.44906903	     -8.87255670	      4.20917501	    -16.91026726	    -21.56088642	     -0.37630846	     12.03673382	      9.29725492	     -7.06027644	     22.33756467	      4.41006141	     13.56063523	    -13.95940167	     -0.24363752	     -1.02132452	     -3.61637063	     -9.63958745	    -10.62589673	      4.43733294	      6.93922962	     17.36717114	    -11.75502090	     16.85428182	     22.00632728	     89.95437384	      0.00000000	      0.00000000	     -2.85595545	      6.10046174	     -4.28022409	     21.29947320	     89.95437384	      0.00000000	      0.00000000
      1.16000000	      1.25398314	     -3.49948130	     -0.11654485	     -0.49362450	      0.88786703	      1.44828378	     -8.97356059	      3.98494237	    -16.59542878	    -22.05667240	     -0.38496156	     11.70288416	      8.97087124	     -6.91487364	     22.28644535	      4.31486799	     13.21923204	    -14.57386007	     -0.25436184	     -1.17200649	     -3.37797092	     -9.39937909	    -10.27455246	      4.36829405	      6.91208268	     16.93272183	    -11.63651708	     16.81237627	     22.29947784	     89.95437384	      0.00000000	      0.00000000	     -3.22038304	      6.00347627	     -4.29406099	     21.50348743	     89.95437384	      0.00000000	      0.00000000
      1.17000000	      1.64060253	     -3.11452704	     -0.67084326	     -0.48494211	      0.88809584	      1.44767372	     -9.85754480	      3.27265507	    -16.07978599	    -22.25526015	     -0.38842757	     11.35396647	      9.48518298	     -7.33136704	     21.36384947	      3.74280271	     12.63352595	    -14.69656816	     -0.25650350	     -2.19013379	     -0.02212642	     -8.78246669	    -10.62635052	      3.86972250	      7.33768373	     16.78073172	    -11.45975160	     16.83431711	     21.86763934	     89.95437384	      0.00000000	      0.00000000	     -3.20287959	      6.17853173	     -6.38553713	     21.26240842	     89.95437384	      0.00000000	      0.00000000
      1.18000000	      1.48916695	     -2.94668717	     -0.90427599	     -0.47655466	      0.88771599	      1.44680186	     -9.99318144	      2.92726483	    -15.54192369	    -22.69449646	     -0.39609369	     10.88491830	      9.40580768	     -7.28246929	     21.31324319	      3.48379515	     12.28839067	    -15.05166894	     -0.26270118	     -3.54805351	      0.48066743	     -8.47207673	    -10.38337838	      3.64651090	      7.26738778	     16.58713620	    -11.19217457	     16.83314062	     21.53438770	     89.95437384	      0.00000000	      0.00000000	     -3.17660680	      6.04947180	     -6.31792899	     20.86647255	     89.95437384	      0.00000000	      0.00000000
      1.19000000	      1.27053125	     -2.85792190	     -1.06382747	     -0.46773481	      0.88735579	      1.44594586	    -10.04925124	      2.66913087	    -15.20441806	    -23.21117686	     -0.40511146	     10.50038428	      9.07757667	     -7.12949556	     21.33721711	      3.37017714	     11.94602761	    -15.52510753	     -0.27096424	     -3.80386764	      0.51630298	     -8.26530781	    -10.04268478	      3.49873448	      7.15367947	     16.05616223	    -11.05312718	     16.79391609	     21.72328947	     89.95437384	      0.00000000	      0.00000000	     -3.44197339	      6.01913012	     -6.28767332	     21.02219781	     89.95437384	      0.00000000	      0.00000000
      1.20000000	      1.41325961	     -1.87385537	     -1.38436921	     -0.45860358	      0.88809431	      1.44453006	    -10.39261867	      1.19017301	    -15.22775100	    -23.93839636	     -0.41780383	      9.83620848	      9.44689455	     -7.38528906	     20.32698347	      2.03078850	     11.35276470	    -14.79936290	     -0.25829761	     -5.81170805	      2.54366185	     -8.64400666	    -10.03666231	      2.40449834	      7.12482981	     15.86593130	    -10.52309625	     16.00077076	     20.88466372	     89.95437384	      0.00000000	      0.00000000	     -3.21934471	      5.95669032	     -6.53174355	     20.19657794	     89.95437384	      0.00000000	      0.00000000
